<svg width="170" height="34" viewBox="0 0 170 34" fill="none" xmlns="http://www.w3.org/2000/svg">
<g filter="url(#filter0_i_1012_6738)">
<path d="M20.6295 12.923C22.7296 14.8663 22.7296 18.2273 20.6295 20.1706L8.05189 31.8096C4.96003 34.6707 -1.82675e-07 32.4384 0 28.1858L9.99926e-07 4.90777C1.1826e-06 0.655131 4.96003 -1.57716 8.05189 1.28396L20.6295 12.923Z" fill="#71FFFF"/>
</g>
<ellipse cx="33.4685" cy="3.67181" rx="3.17625" ry="3.23212" fill="#590696"/>
<g filter="url(#filter1_i_1012_6738)">
<path fill-rule="evenodd" clip-rule="evenodd" d="M35.0692 20.1705C37.1692 18.2272 37.1692 14.8662 35.0692 12.9229L22.4915 1.2839C19.7668 -1.23746 15.5913 0.196723 14.638 3.48331C14.493 3.98345 14.7003 4.50455 15.0822 4.85856C17.2521 6.86977 19.7359 9.1712 20.8348 10.1864C22.8915 11.9887 24.5664 13.6142 24.5664 16.3128C24.5856 19.5565 23.0582 20.914 21.3343 22.4462C21.1692 22.5929 21.0023 22.7412 20.8348 22.893L15.0815 28.2358C14.7002 28.59 14.4932 29.1109 14.6382 29.6107C15.5917 32.8969 19.767 34.3308 22.4915 31.8095L35.0692 20.1705Z" fill="#0096FF"/>
</g>
<path d="M53.2504 26.299C51.3695 26.299 49.7042 25.9561 48.2543 25.2704C46.8045 24.565 45.6681 23.5952 44.8452 22.3609C44.0419 21.1266 43.6403 19.7159 43.6403 18.1289V4.40434C43.6403 3.95372 43.7872 3.59125 44.0811 3.31696C44.375 3.02307 44.7375 2.87613 45.1685 2.87613C45.6191 2.87613 45.9816 3.02307 46.2559 3.31696C46.5498 3.59125 46.6967 3.95372 46.6967 4.40434V18.1289C46.6967 19.1869 46.971 20.1273 47.5196 20.9502C48.0878 21.7535 48.8617 22.3903 49.8413 22.8605C50.8405 23.3111 51.9769 23.5364 53.2504 23.5364C54.4848 23.5364 55.5721 23.3111 56.5126 22.8605C57.4726 22.3903 58.2171 21.7535 58.7461 20.9502C59.2947 20.1273 59.569 19.1869 59.569 18.1289V4.40434C59.569 3.95372 59.716 3.59125 60.0098 3.31696C60.3037 3.02307 60.6662 2.87613 61.0972 2.87613C61.5479 2.87613 61.9103 3.02307 62.1846 3.31696C62.4589 3.59125 62.5961 3.95372 62.5961 4.40434V18.1289C62.5961 19.7159 62.1944 21.1266 61.3911 22.3609C60.6074 23.5952 59.5102 24.565 58.0996 25.2704C56.6889 25.9561 55.0725 26.299 53.2504 26.299ZM80.3209 25.8582C79.8899 25.8582 79.5274 25.721 79.2335 25.4467C78.9592 25.1528 78.8221 24.7904 78.8221 24.3593V17.1297C78.8221 16.0129 78.6163 15.1019 78.2049 14.3965C77.7935 13.6912 77.2351 13.172 76.5297 12.8389C75.844 12.4863 75.0505 12.3099 74.1492 12.3099C73.3264 12.3099 72.5818 12.4765 71.9157 12.8095C71.2495 13.1426 70.7206 13.5932 70.3287 14.1614C69.9368 14.71 69.7409 15.3468 69.7409 16.0717H67.8894C67.8894 14.8374 68.1833 13.7402 68.7711 12.7801C69.3785 11.8005 70.2013 11.0266 71.2398 10.4584C72.2782 9.89025 73.4439 9.60616 74.737 9.60616C76.0889 9.60616 77.2938 9.90005 78.3518 10.4878C79.4294 11.056 80.2719 11.8985 80.8793 13.0153C81.5062 14.132 81.8197 15.5035 81.8197 17.1297V24.3593C81.8197 24.7904 81.6728 25.1528 81.3789 25.4467C81.1046 25.721 80.7519 25.8582 80.3209 25.8582ZM68.2421 25.8582C67.8111 25.8582 67.4486 25.721 67.1547 25.4467C66.8804 25.1528 66.7433 24.7904 66.7433 24.3593V11.2519C66.7433 10.8013 66.8804 10.4388 67.1547 10.1645C67.4486 9.89025 67.8111 9.7531 68.2421 9.7531C68.6927 9.7531 69.0552 9.89025 69.3295 10.1645C69.6038 10.4388 69.7409 10.8013 69.7409 11.2519V24.3593C69.7409 24.7904 69.6038 25.1528 69.3295 25.4467C69.0552 25.721 68.6927 25.8582 68.2421 25.8582ZM93.4291 25.9463C91.9009 25.9463 90.5295 25.5937 89.3147 24.8883C88.1 24.1634 87.1399 23.1838 86.4346 21.9494C85.7293 20.7151 85.3668 19.324 85.3472 17.7762V4.37496C85.3472 3.92433 85.4844 3.56187 85.7587 3.28757C86.0526 3.01328 86.415 2.87613 86.8461 2.87613C87.2967 2.87613 87.6592 3.01328 87.9334 3.28757C88.2077 3.56187 88.3449 3.92433 88.3449 4.37496V12.3099C89.0306 11.487 89.8535 10.8405 90.8135 10.3703C91.7932 9.88045 92.861 9.63555 94.0169 9.63555C95.4472 9.63555 96.7305 9.99801 97.8669 10.7229C99.0032 11.4283 99.8947 12.3981 100.541 13.6324C101.207 14.8472 101.54 16.2284 101.54 17.7762C101.54 19.324 101.178 20.7151 100.453 21.9494C99.7477 23.1838 98.7877 24.1634 97.573 24.8883C96.3582 25.5937 94.977 25.9463 93.4291 25.9463ZM93.4291 23.3013C94.4284 23.3013 95.3198 23.0662 96.1035 22.596C96.8872 22.1062 97.5044 21.44 97.955 20.5976C98.4252 19.7551 98.6604 18.8146 98.6604 17.7762C98.6604 16.7182 98.4252 15.7778 97.955 14.9549C97.5044 14.132 96.8872 13.4855 96.1035 13.0153C95.3198 12.5254 94.4284 12.2805 93.4291 12.2805C92.4495 12.2805 91.5581 12.5254 90.7548 13.0153C89.9711 13.4855 89.3539 14.132 88.9033 14.9549C88.4526 15.7778 88.2273 16.7182 88.2273 17.7762C88.2273 18.8146 88.4526 19.7551 88.9033 20.5976C89.3539 21.44 89.9711 22.1062 90.7548 22.596C91.5581 23.0662 92.4495 23.3013 93.4291 23.3013ZM106.375 25.8288C105.944 25.8288 105.582 25.6916 105.288 25.4173C105.014 25.1234 104.876 24.761 104.876 24.3299V11.2519C104.876 10.8013 105.014 10.4388 105.288 10.1645C105.582 9.89025 105.944 9.7531 106.375 9.7531C106.826 9.7531 107.188 9.89025 107.463 10.1645C107.737 10.4388 107.874 10.8013 107.874 11.2519V24.3299C107.874 24.761 107.737 25.1234 107.463 25.4173C107.188 25.6916 106.826 25.8288 106.375 25.8288ZM106.375 7.1375C105.846 7.1375 105.386 6.95137 104.994 6.57911C104.622 6.18726 104.436 5.72684 104.436 5.19784C104.436 4.66884 104.622 4.21821 104.994 3.84596C105.386 3.45411 105.846 3.25818 106.375 3.25818C106.904 3.25818 107.355 3.45411 107.727 3.84596C108.119 4.21821 108.315 4.66884 108.315 5.19784C108.315 5.72684 108.119 6.18726 107.727 6.57911C107.355 6.95137 106.904 7.1375 106.375 7.1375ZM118.723 25.9463C117.293 25.9463 116.009 25.5937 114.873 24.8883C113.737 24.1634 112.835 23.1936 112.169 21.9788C111.523 20.7445 111.199 19.3534 111.199 17.8056C111.199 16.2578 111.552 14.8667 112.257 13.6324C112.982 12.3981 113.952 11.4283 115.167 10.7229C116.401 9.99801 117.782 9.63555 119.311 9.63555C120.839 9.63555 122.21 9.99801 123.425 10.7229C124.64 11.4283 125.6 12.3981 126.305 13.6324C127.03 14.8667 127.393 16.2578 127.393 17.8056H126.246C126.246 19.3534 125.913 20.7445 125.247 21.9788C124.601 23.1936 123.709 24.1634 122.573 24.8883C121.436 25.5937 120.153 25.9463 118.723 25.9463ZM119.311 23.3013C120.31 23.3013 121.201 23.0662 121.985 22.596C122.769 22.1062 123.386 21.4498 123.837 20.627C124.287 19.7845 124.513 18.844 124.513 17.8056C124.513 16.7476 124.287 15.8072 123.837 14.9843C123.386 14.1418 122.769 13.4855 121.985 13.0153C121.201 12.5254 120.31 12.2805 119.311 12.2805C118.331 12.2805 117.44 12.5254 116.636 13.0153C115.853 13.4855 115.226 14.1418 114.755 14.9843C114.305 15.8072 114.079 16.7476 114.079 17.8056C114.079 18.844 114.305 19.7845 114.755 20.627C115.226 21.4498 115.853 22.1062 116.636 22.596C117.44 23.0662 118.331 23.3013 119.311 23.3013ZM125.894 25.8582C125.463 25.8582 125.1 25.721 124.806 25.4467C124.532 25.1528 124.395 24.7904 124.395 24.3593V19.8628L124.953 16.7476L127.393 17.8056V24.3593C127.393 24.7904 127.246 25.1528 126.952 25.4467C126.677 25.721 126.325 25.8582 125.894 25.8582ZM136.274 25.9463C134.902 25.9463 133.629 25.7406 132.453 25.3292C131.297 24.8981 130.396 24.3593 129.749 23.7128C129.456 23.3993 129.328 23.0466 129.367 22.6548C129.426 22.2433 129.622 21.9103 129.955 21.6556C130.347 21.3421 130.729 21.2147 131.101 21.2735C131.493 21.3127 131.826 21.4792 132.101 21.7731C132.434 22.1454 132.963 22.498 133.687 22.8311C134.432 23.1446 135.255 23.3013 136.156 23.3013C137.293 23.3013 138.155 23.1152 138.742 22.7429C139.35 22.3707 139.663 21.8907 139.683 21.3029C139.702 20.7151 139.418 20.2057 138.831 19.7747C138.262 19.3436 137.214 18.991 135.686 18.7167C133.707 18.3248 132.267 17.7371 131.366 16.9534C130.484 16.1697 130.043 15.2096 130.043 14.0733C130.043 13.074 130.337 12.2511 130.925 11.6046C131.513 10.9384 132.267 10.4486 133.188 10.1352C134.109 9.80208 135.069 9.63555 136.068 9.63555C137.361 9.63555 138.507 9.84127 139.506 10.2527C140.506 10.6642 141.299 11.2323 141.887 11.9573C142.161 12.2707 142.289 12.6038 142.269 12.9565C142.249 13.2896 142.083 13.5736 141.769 13.8088C141.456 14.0243 141.084 14.0928 140.653 14.0145C140.222 13.9361 139.859 13.7598 139.565 13.4855C139.075 13.0153 138.546 12.692 137.978 12.5156C137.41 12.3393 136.754 12.2511 136.009 12.2511C135.147 12.2511 134.412 12.3981 133.805 12.692C133.217 12.9859 132.923 13.4169 132.923 13.9851C132.923 14.3378 133.012 14.661 133.188 14.9549C133.384 15.2292 133.756 15.4839 134.305 15.719C134.853 15.9345 135.657 16.1501 136.715 16.3656C138.184 16.6595 139.34 17.0317 140.182 17.4824C141.044 17.933 141.662 18.462 142.034 19.0693C142.406 19.6571 142.592 20.3429 142.592 21.1266C142.592 22.0278 142.347 22.8409 141.858 23.5658C141.387 24.2908 140.682 24.8687 139.742 25.2998C138.821 25.7308 137.665 25.9463 136.274 25.9463ZM148.774 25.8288C147.912 25.8288 147.148 25.5937 146.482 25.1234C145.816 24.6532 145.297 24.0165 144.925 23.2132C144.552 22.3903 144.366 21.4498 144.366 20.3918V4.34557C144.366 3.91453 144.503 3.56187 144.778 3.28757C145.052 3.01328 145.405 2.87613 145.836 2.87613C146.267 2.87613 146.619 3.01328 146.894 3.28757C147.168 3.56187 147.305 3.91453 147.305 4.34557V20.3918C147.305 21.1168 147.442 21.7143 147.716 22.1846C147.991 22.6548 148.343 22.8899 148.774 22.8899H149.509C149.901 22.8899 150.214 23.027 150.45 23.3013C150.704 23.5756 150.832 23.9283 150.832 24.3593C150.832 24.7904 150.646 25.143 150.273 25.4173C149.901 25.6916 149.421 25.8288 148.833 25.8288H148.774ZM155.216 32.8821C155.02 32.8821 154.785 32.8233 154.511 32.7057C153.649 32.3139 153.414 31.6967 153.806 30.8542L162.769 10.6054C163.161 9.78249 163.778 9.54738 164.621 9.90005C165.502 10.2723 165.747 10.8895 165.355 11.7515L156.362 31.971C156.127 32.5784 155.745 32.8821 155.216 32.8821ZM158.684 25.1822C158.312 25.339 157.959 25.3585 157.626 25.241C157.313 25.1038 157.058 24.8491 156.862 24.4769L150.132 11.6928C149.936 11.3205 149.907 10.9678 150.044 10.6348C150.201 10.2821 150.465 10.0274 150.837 9.87066C151.21 9.71392 151.562 9.70412 151.895 9.84127C152.228 9.95882 152.483 10.2037 152.659 10.576L159.096 23.3601C159.292 23.7324 159.36 24.0948 159.301 24.4475C159.262 24.7806 159.056 25.0255 158.684 25.1822Z" fill="white"/>
<defs>
<filter id="filter0_i_1012_6738" x="0" y="0" width="22.2046" height="33.0936" filterUnits="userSpaceOnUse" color-interpolation-filters="sRGB">
<feFlood flood-opacity="0" result="BackgroundImageFix"/>
<feBlend mode="normal" in="SourceGraphic" in2="BackgroundImageFix" result="shape"/>
<feColorMatrix in="SourceAlpha" type="matrix" values="0 0 0 0 0 0 0 0 0 0 0 0 0 0 0 0 0 0 127 0" result="hardAlpha"/>
<feOffset dx="-5.71449" dy="5.30631"/>
<feComposite in2="hardAlpha" operator="arithmetic" k2="-1" k3="1"/>
<feColorMatrix type="matrix" values="0 0 0 0 0 0 0 0 0 0.843137 0 0 0 0 1 0 0 0 1 0"/>
<feBlend mode="normal" in2="shape" result="effect1_innerShadow_1012_6738"/>
</filter>
<filter id="filter1_i_1012_6738" x="14.5916" y="-6.10352e-05" width="22.0526" height="33.0936" filterUnits="userSpaceOnUse" color-interpolation-filters="sRGB">
<feFlood flood-opacity="0" result="BackgroundImageFix"/>
<feBlend mode="normal" in="SourceGraphic" in2="BackgroundImageFix" result="shape"/>
<feColorMatrix in="SourceAlpha" type="matrix" values="0 0 0 0 0 0 0 0 0 0 0 0 0 0 0 0 0 0 127 0" result="hardAlpha"/>
<feOffset dx="-5.71449" dy="5.30631"/>
<feComposite in2="hardAlpha" operator="arithmetic" k2="-1" k3="1"/>
<feColorMatrix type="matrix" values="0 0 0 0 0.345098 0 0 0 0 0 0 0 0 0 1 0 0 0 1 0"/>
<feBlend mode="normal" in2="shape" result="effect1_innerShadow_1012_6738"/>
</filter>
</defs>
</svg>
